<svg width="30" height="6" viewBox="0 0 30 6" fill="none" xmlns="http://www.w3.org/2000/svg">
<mask id="mask0_213_98" style="mask-type:alpha" maskUnits="userSpaceOnUse" x="0" y="0" width="30" height="6">
<rect width="30" height="6" fill="#D9D9D9"/>
</mask>
<g mask="url(#mask0_213_98)">
<path d="M-12 3C-11.1 3.75 -10.2 4.5 -8.25 4.5C-4.5 4.5 -4.5 1.5 -0.75 1.5C3.15 1.5 2.85 4.5 6.75 4.5C10.5 4.5 10.5 1.5 14.25 1.5C16.2 1.5 17.1 2.25 18 3" stroke="#FF3838" stroke-width="1.5" stroke-linecap="round" stroke-linejoin="round"/>
<path d="M18 3C18.9 3.75 19.8 4.5 21.75 4.5C25.5 4.5 25.5 1.5 29.25 1.5C33.15 1.5 32.85 4.5 36.75 4.5C40.5 4.5 40.5 1.5 44.25 1.5C46.2 1.5 47.1 2.25 48 3" stroke="#FF3838" stroke-width="1.5" stroke-linecap="round" stroke-linejoin="round"/>
</g>
</svg>
